<?xml version="1.0" encoding="UTF-8"?>
<svg version="1.1" xmlns="http://www.w3.org/2000/svg" width="221" height="221">
<path d="M0 0 C72.93 0 145.86 0 221 0 C221 72.93 221 145.86 221 221 C148.07 221 75.14 221 0 221 C0 148.07 0 75.14 0 0 Z " fill="#010101" transform="translate(0,0)"/>
<path d="M0 0 C1.12535156 0.00580078 1.12535156 0.00580078 2.2734375 0.01171875 C3.02367187 0.00785156 3.77390625 0.00398438 4.546875 0 C10.14682697 0.01010822 10.14682697 0.01010822 11.2734375 1.13671875 C11.3713432 2.63409999 11.40318614 4.13614767 11.3984375 5.63671875 C11.40230469 6.85875 11.40230469 6.85875 11.40625 8.10546875 C11.2734375 10.13671875 11.2734375 10.13671875 10.2734375 11.13671875 C8.75415712 11.20851839 7.23176268 11.22063882 5.7109375 11.19921875 C4.88464844 11.19019531 4.05835938 11.18117188 3.20703125 11.171875 C2.56894531 11.16027344 1.93085937 11.14867188 1.2734375 11.13671875 C1.7684375 12.12671875 1.7684375 12.12671875 2.2734375 13.13671875 C2.49811581 14.6734074 2.68140555 16.21639929 2.8359375 17.76171875 C2.91972656 18.57898438 3.00351563 19.39625 3.08984375 20.23828125 C3.15042969 20.86476563 3.21101563 21.49125 3.2734375 22.13671875 C4.2634375 21.14671875 5.2534375 20.15671875 6.2734375 19.13671875 C5.7784375 21.61171875 5.7784375 21.61171875 5.2734375 24.13671875 C5.9334375 24.13671875 6.5934375 24.13671875 7.2734375 24.13671875 C7.6034375 23.47671875 7.9334375 22.81671875 8.2734375 22.13671875 C8.2734375 23.45671875 8.2734375 24.77671875 8.2734375 26.13671875 C10.2534375 25.14671875 12.2334375 24.15671875 14.2734375 23.13671875 C13.6134375 25.11671875 12.9534375 27.09671875 12.2734375 29.13671875 C15.5734375 28.14671875 18.8734375 27.15671875 22.2734375 26.13671875 C22.2734375 27.45671875 22.2734375 28.77671875 22.2734375 30.13671875 C20.2934375 30.79671875 18.3134375 31.45671875 16.2734375 32.13671875 C16.2734375 34.77671875 16.2734375 37.41671875 16.2734375 40.13671875 C17.2634375 40.63171875 17.2634375 40.63171875 18.2734375 41.13671875 C17.2834375 41.13671875 16.2934375 41.13671875 15.2734375 41.13671875 C15.7684375 43.11671875 15.7684375 43.11671875 16.2734375 45.13671875 C15.6134375 45.13671875 14.9534375 45.13671875 14.2734375 45.13671875 C14.7684375 47.11671875 14.7684375 47.11671875 15.2734375 49.13671875 C13.2934375 49.79671875 11.3134375 50.45671875 9.2734375 51.13671875 C9.2734375 52.78671875 9.2734375 54.43671875 9.2734375 56.13671875 C8.6134375 54.81671875 7.9534375 53.49671875 7.2734375 52.13671875 C6.6134375 52.13671875 5.9534375 52.13671875 5.2734375 52.13671875 C4.9434375 53.45671875 4.6134375 54.77671875 4.2734375 56.13671875 C3.9434375 55.47671875 3.6134375 54.81671875 3.2734375 54.13671875 C2.9434375 60.73671875 2.6134375 67.33671875 2.2734375 74.13671875 C0.2934375 75.12671875 0.2934375 75.12671875 -1.7265625 76.13671875 C-0.7365625 74.65171875 -0.7365625 74.65171875 0.2734375 73.13671875 C0.54785122 71.00967565 0.54785122 71.00967565 0.46875 68.6875 C0.45908203 67.41616211 0.45908203 67.41616211 0.44921875 66.11914062 C0.43246094 65.23806641 0.41570312 64.35699219 0.3984375 63.44921875 C0.38941406 62.55654297 0.38039062 61.66386719 0.37109375 60.74414062 C0.34753498 58.54139561 0.31464079 56.33919287 0.2734375 54.13671875 C-0.3246875 55.10609375 -0.9228125 56.07546875 -1.5390625 57.07421875 C-3.7265625 60.13671875 -3.7265625 60.13671875 -6.7265625 61.13671875 C-6.38625 62.52890625 -6.38625 62.52890625 -6.0390625 63.94921875 C-5.7265625 67.13671875 -5.7265625 67.13671875 -7.0390625 69.01171875 C-8.7265625 70.13671875 -8.7265625 70.13671875 -10.7265625 70.13671875 C-11.0565625 72.11671875 -11.3865625 74.09671875 -11.7265625 76.13671875 C-12.3865625 76.13671875 -13.0465625 76.13671875 -13.7265625 76.13671875 C-13.4996875 74.94046875 -13.2728125 73.74421875 -13.0390625 72.51171875 C-12.47769314 68.22558781 -13.54561937 65.88794093 -15.7265625 62.13671875 C-15.7265625 61.14671875 -15.7265625 60.15671875 -15.7265625 59.13671875 C-16.3865625 59.13671875 -17.0465625 59.13671875 -17.7265625 59.13671875 C-17.8503125 59.75546875 -17.9740625 60.37421875 -18.1015625 61.01171875 C-18.7265625 63.13671875 -18.7265625 63.13671875 -20.7265625 65.13671875 C-21.12420513 67.12493188 -21.46431599 69.12616214 -21.7265625 71.13671875 C-22.3865625 71.13671875 -23.0465625 71.13671875 -23.7265625 71.13671875 C-23.05632121 64.03216111 -23.05632121 64.03216111 -19.7265625 61.13671875 C-19.7265625 60.14671875 -19.7265625 59.15671875 -19.7265625 58.13671875 C-21.0465625 57.80671875 -22.3665625 57.47671875 -23.7265625 57.13671875 C-23.25075052 55.82299888 -22.77081101 54.51077329 -22.2890625 53.19921875 C-22.02222656 52.46832031 -21.75539063 51.73742187 -21.48046875 50.984375 C-20.7265625 49.13671875 -20.7265625 49.13671875 -19.7265625 48.13671875 C-17.05597399 47.99556714 -14.40224012 48.09424768 -11.7265625 48.13671875 C-11.3965625 47.14671875 -11.0665625 46.15671875 -10.7265625 45.13671875 C-11.3865625 44.80671875 -12.0465625 44.47671875 -12.7265625 44.13671875 C-12.3965625 43.14671875 -12.0665625 42.15671875 -11.7265625 41.13671875 C-12.64888672 41.04583984 -12.64888672 41.04583984 -13.58984375 40.953125 C-14.39808594 40.86933594 -15.20632812 40.78554687 -16.0390625 40.69921875 C-16.83957031 40.61800781 -17.64007813 40.53679687 -18.46484375 40.453125 C-20.7265625 40.13671875 -20.7265625 40.13671875 -23.7265625 39.13671875 C-23.7265625 40.12671875 -23.7265625 41.11671875 -23.7265625 42.13671875 C-26.6965625 42.63171875 -26.6965625 42.63171875 -29.7265625 43.13671875 C-29.7265625 43.79671875 -29.7265625 44.45671875 -29.7265625 45.13671875 C-28.4065625 45.46671875 -27.0865625 45.79671875 -25.7265625 46.13671875 C-25.7265625 46.79671875 -25.7265625 47.45671875 -25.7265625 48.13671875 C-25.0665625 48.46671875 -24.4065625 48.79671875 -23.7265625 49.13671875 C-25.0465625 48.80671875 -26.3665625 48.47671875 -27.7265625 48.13671875 C-27.7265625 47.47671875 -27.7265625 46.81671875 -27.7265625 46.13671875 C-28.7165625 46.13671875 -29.7065625 46.13671875 -30.7265625 46.13671875 C-30.7265625 45.47671875 -30.7265625 44.81671875 -30.7265625 44.13671875 C-31.3865625 44.13671875 -32.0465625 44.13671875 -32.7265625 44.13671875 C-32.7265625 43.47671875 -32.7265625 42.81671875 -32.7265625 42.13671875 C-34.0465625 42.13671875 -35.3665625 42.13671875 -36.7265625 42.13671875 C-36.75345466 40.65764983 -36.77290871 39.17844392 -36.7890625 37.69921875 C-36.80646484 36.46365234 -36.80646484 36.46365234 -36.82421875 35.203125 C-36.7265625 33.13671875 -36.7265625 33.13671875 -35.7265625 32.13671875 C-33.70692051 32.06427822 -31.68489126 32.05294687 -29.6640625 32.07421875 C-28.00697266 32.08775391 -28.00697266 32.08775391 -26.31640625 32.1015625 C-25.46175781 32.11316406 -24.60710937 32.12476562 -23.7265625 32.13671875 C-23.3965625 33.78671875 -23.0665625 35.43671875 -22.7265625 37.13671875 C-21.7365625 37.46671875 -20.7465625 37.79671875 -19.7265625 38.13671875 C-19.7265625 36.81671875 -19.7265625 35.49671875 -19.7265625 34.13671875 C-20.3865625 34.13671875 -21.0465625 34.13671875 -21.7265625 34.13671875 C-21.7265625 33.14671875 -21.7265625 32.15671875 -21.7265625 31.13671875 C-23.3765625 30.80671875 -25.0265625 30.47671875 -26.7265625 30.13671875 C-26.7265625 26.86396849 -26.42731094 24.29008675 -25.7265625 21.13671875 C-28.3665625 20.14671875 -31.0065625 19.15671875 -33.7265625 18.13671875 C-33.3965625 16.81671875 -33.0665625 15.49671875 -32.7265625 14.13671875 C-31.10332164 13.91509546 -29.4778415 13.70982072 -27.8515625 13.51171875 C-26.94664063 13.39570312 -26.04171875 13.2796875 -25.109375 13.16015625 C-24.32304688 13.15242188 -23.53671875 13.1446875 -22.7265625 13.13671875 C-20.7265625 15.13671875 -20.7265625 15.13671875 -19.8515625 17.38671875 C-17.97924584 21.96349281 -15.85975665 25.38125598 -11.7265625 28.13671875 C-9.08023963 27.82454235 -9.08023963 27.82454235 -6.7265625 27.13671875 C-6.3965625 25.48671875 -6.0665625 23.83671875 -5.7265625 22.13671875 C-4.4065625 23.12671875 -3.0865625 24.11671875 -1.7265625 25.13671875 C-2.9090504 21.46374942 -2.9090504 21.46374942 -4.7265625 18.13671875 C-7.81026137 17.07922318 -7.81026137 17.07922318 -10.7265625 17.13671875 C-10.3965625 16.47671875 -10.0665625 15.81671875 -9.7265625 15.13671875 C-3.20348558 16.4905649 -3.20348558 16.4905649 -0.7890625 19.76171875 C-0.263125 20.93734375 -0.263125 20.93734375 0.2734375 22.13671875 C0.2734375 18.50671875 0.2734375 14.87671875 0.2734375 11.13671875 C-1.180625 11.16765625 -1.180625 11.16765625 -2.6640625 11.19921875 C-5.7265625 11.13671875 -5.7265625 11.13671875 -6.7265625 10.13671875 C-6.8244682 8.63933751 -6.85631114 7.13728983 -6.8515625 5.63671875 C-6.85542969 4.4146875 -6.85542969 4.4146875 -6.859375 3.16796875 C-6.57958559 -1.11116346 -3.61029598 0.00651678 0 0 Z " fill="#98BDAC" transform="translate(108.7265625,74.86328125)"/>
<path d="M0 0 C2.87029869 1.79393668 4.49131638 2.98263276 6 6 C6.34708476 11.29304255 6.51351894 14.73358414 3 19 C-0.42919572 21.57189679 -3.83939486 21.502142 -8 21 C-10.97239241 19.21523759 -13.42604027 17.14791945 -15 14 C-15.37712577 9.00308353 -15.09290612 6.00932275 -12 2 C-7.98141405 -0.6790573 -4.72358279 -0.69610694 0 0 Z " fill="#C0EED9" transform="translate(115,103)"/>
<path d="M0 0 C1.32 0.66 2.64 1.32 4 2 C3.01 2.66 2.02 3.32 1 4 C1 4.99 1 5.98 1 7 C2.32 7 3.64 7 5 7 C5 5.35 5 3.7 5 2 C5.66 2.33 6.32 2.66 7 3 C7 4.32 7 5.64 7 7 C7.268125 6.030625 7.53625 5.06125 7.8125 4.0625 C8.4003125 2.5465625 8.4003125 2.5465625 9 1 C9.99 0.67 10.98 0.34 12 0 C15 2 15 2 16 5 C16.66 4.67 17.32 4.34 18 4 C19 7 19 7 17.75 9.625 C16 12 16 12 13 13 C13.3403125 14.3921875 13.3403125 14.3921875 13.6875 15.8125 C14 19 14 19 12.6875 20.875 C11 22 11 22 9 22 C8.67 23.98 8.34 25.96 8 28 C7.34 28 6.68 28 6 28 C6.226875 26.80375 6.45375 25.6075 6.6875 24.375 C7.24886936 20.08886906 6.18094313 17.75122218 4 14 C4 13.01 4 12.02 4 11 C3.34 11 2.68 11 2 11 C1.87625 11.61875 1.7525 12.2375 1.625 12.875 C1 15 1 15 -1 17 C-1.39764263 18.98821313 -1.73775349 20.98944339 -2 23 C-2.66 23 -3.32 23 -4 23 C-3.32975871 15.89544236 -3.32975871 15.89544236 0 13 C0 12.01 0 11.02 0 10 C-1.32 9.67 -2.64 9.34 -4 9 C-3.52418802 7.68628013 -3.04424851 6.37405454 -2.5625 5.0625 C-2.29566406 4.33160156 -2.02882813 3.60070312 -1.75390625 2.84765625 C-1 1 -1 1 0 0 Z " fill="#7A9789" transform="translate(89,123)"/>
<path d="M0 0 C2 2 2 2 2.875 4.25 C4.74731666 8.82677406 6.86680585 12.24453723 11 15 C11.8125 17.4375 11.8125 17.4375 12 20 C11.34 20.99 10.68 21.98 10 23 C9.36707617 25.11280345 9.36707617 25.11280345 9 27 C9 26.01 9 25.02 9 24 C7.68 24.33 6.36 24.66 5 25 C4.67 23.35 4.34 21.7 4 20 C3.34 20 2.68 20 2 20 C2 19.34 2 18.68 2 18 C0.35 18 -1.3 18 -3 18 C-3.66 16.68 -4.32 15.36 -5 14 C-4.34 13.34 -3.68 12.68 -3 12 C-3 10.68 -3 9.36 -3 8 C-5.64 7.01 -8.28 6.02 -11 5 C-10.67 3.68 -10.34 2.36 -10 1 C-6.60598928 0.22422612 -3.48397425 -0.2824844 0 0 Z " fill="#4F6158" transform="translate(86,88)"/>
<path d="M0 0 C6.45217391 -0.36521739 6.45217391 -0.36521739 8.875 1.25 C10 3 10 3 10.375 5 C10.85512551 7.22524314 10.85512551 7.22524314 13.1875 8.625 C16.07321574 10.03579436 18.92780122 11.07119572 22 12 C21.67 12.99 21.34 13.98 21 15 C17.94615824 16.38810989 15.67279711 17.03129289 12.3125 16.875 C9.45819892 15.79499419 8.50789882 14.61898216 7 12 C7 11.34 7 10.68 7 10 C5.68 10 4.36 10 3 10 C2.87625 10.763125 2.7525 11.52625 2.625 12.3125 C2 15 2 15 0 18 C0.99 18.33 1.98 18.66 3 19 C3.125 21.375 3.125 21.375 3 24 C2.34 24.66 1.68 25.32 1 26 C-2.53571429 25.46428571 -2.53571429 25.46428571 -4 24 C-4.04063832 22.33382885 -4.042721 20.66611905 -4 19 C-3.01 18.67 -2.02 18.34 -1 18 C-1.061875 16.8553125 -1.061875 16.8553125 -1.125 15.6875 C-1 13 -1 13 1 10 C1.02613272 7.7366394 1.02613272 7.7366394 0.625 5.375 C0.51414062 4.57835937 0.40328125 3.78171875 0.2890625 2.9609375 C0.19367188 2.31382813 0.09828125 1.66671875 0 1 C0 0.67 0 0.34 0 0 Z " fill="#1F2623" transform="translate(124,124)"/>
<path d="M0 0 C0.7425 0.763125 1.485 1.52625 2.25 2.3125 C4.4263323 4.4393702 6.52167796 6.2559956 9 8 C10.32 6.35 11.64 4.7 13 3 C13.99 4.485 13.99 4.485 15 6 C14.49210937 6.51046875 13.98421875 7.0209375 13.4609375 7.546875 C8.53013927 12.75468436 5.23526309 17.89359322 2.2265625 24.3984375 C1 27 1 27 -1 30 C-5.29 28.35 -9.58 26.7 -14 25 C-13.01 21.7 -12.02 18.4 -11 15 C-10.01 15.33 -9.02 15.66 -8 16 C-8.33 18.31 -8.66 20.62 -9 23 C-6.83656989 20.96731398 -6.83656989 20.96731398 -5 18 C-4.34 18.66 -3.68 19.32 -3 20 C-3.375 22.625 -3.375 22.625 -4 25 C-3.01 25.33 -2.02 25.66 -1 26 C-0.42008508 21.93647901 -0.42008508 21.93647901 -1 18 C-3.40408404 15.78043995 -6.04393189 14.37246019 -9 13 C-8.67 12.34 -8.34 11.68 -8 11 C-4.2089881 12.44950455 -0.6125362 14.15172566 3 16 C5.23760151 13.3262441 5.23760151 13.3262441 4.81640625 11.046875 C3.86446111 8.66018002 2.65718917 7.15263483 0.9375 5.25 C0.38964844 4.63640625 -0.15820312 4.0228125 -0.72265625 3.390625 C-1.14417969 2.93171875 -1.56570312 2.4728125 -2 2 C-1.34 1.34 -0.68 0.68 0 0 Z " fill="#84C5A7" transform="translate(61,63)"/>
<path d="M0 0 C0.33 0.66 0.66 1.32 1 2 C1.66 2 2.32 2 3 2 C3.33 3.32 3.66 4.64 4 6 C5.65 5.67 7.3 5.34 9 5 C8.34 4.67 7.68 4.34 7 4 C7.99 4 8.98 4 10 4 C10 5.98 10 7.96 10 10 C8.56208484 9.85831863 7.1246763 9.71148957 5.6875 9.5625 C4.88699219 9.48128906 4.08648437 9.40007812 3.26171875 9.31640625 C1 9 1 9 -2 8 C-2 8.99 -2 9.98 -2 11 C-3.98 11.33 -5.96 11.66 -8 12 C-8 12.66 -8 13.32 -8 14 C-6.68 14.33 -5.36 14.66 -4 15 C-4 15.66 -4 16.32 -4 17 C-3.34 17.33 -2.68 17.66 -2 18 C-3.32 17.67 -4.64 17.34 -6 17 C-6 16.34 -6 15.68 -6 15 C-6.99 15 -7.98 15 -9 15 C-9 14.34 -9 13.68 -9 13 C-9.66 13 -10.32 13 -11 13 C-11 12.34 -11 11.68 -11 11 C-12.32 11 -13.64 11 -15 11 C-15.02689216 9.52093108 -15.04634621 8.04172517 -15.0625 6.5625 C-15.07410156 5.73878906 -15.08570312 4.91507812 -15.09765625 4.06640625 C-15 2 -15 2 -14 1 C-11.98035801 0.92755947 -9.95832876 0.91622812 -7.9375 0.9375 C-6.28041016 0.95103516 -6.28041016 0.95103516 -4.58984375 0.96484375 C-3.73519531 0.97644531 -2.88054687 0.98804687 -2 1 C-1.67 2.65 -1.34 4.3 -1 6 C-0.01 6.33 0.98 6.66 2 7 C2 5.68 2 4.36 2 3 C1.34 3 0.68 3 0 3 C0 2.01 0 1.02 0 0 Z " fill="#8FB1A1" transform="translate(87,106)"/>
<path d="M0 0 C0 0.99 0 1.98 0 3 C-0.66 3 -1.32 3 -2 3 C-2.28875 3.763125 -2.5775 4.52625 -2.875 5.3125 C-4 8 -4 8 -6 11 C-5.13375 10.505 -5.13375 10.505 -4.25 10 C-2 9 -2 9 2 9 C1.67 9.99 1.34 10.98 1 12 C-0.84765625 12.73046875 -0.84765625 12.73046875 -3.0625 13.1875 C-3.79597656 13.34605469 -4.52945313 13.50460938 -5.28515625 13.66796875 C-5.85105469 13.77753906 -6.41695312 13.88710937 -7 14 C-6.7215625 15.0828125 -6.7215625 15.0828125 -6.4375 16.1875 C-5.98004693 19.12826973 -6.26483643 21.14103058 -7 24 C-4.21249856 22.60624928 -4.10733713 20.83755139 -3 18 C-2.34 17.34 -1.68 16.68 -1 16 C1.625 16.375 1.625 16.375 4 17 C4 19.31 4 21.62 4 24 C3.01 23.67 2.02 23.34 1 23 C1.33 21.68 1.66 20.36 2 19 C1.01 19 0.02 19 -1 19 C-1.144375 19.969375 -1.28875 20.93875 -1.4375 21.9375 C-2 25 -2 25 -3 26 C-5.4375 26.25 -5.4375 26.25 -8 26 C-10.1642235 22.75366476 -10.37569856 21.75698557 -10 18 C-9.34 17.01 -8.68 16.02 -8 15 C-8.99 15 -9.98 15 -11 15 C-9.74194623 10.49197399 -8.09592835 7.5087188 -5 4 C-9.455 5.485 -9.455 5.485 -14 7 C-13.67 5.68 -13.34 4.36 -13 3 C-10.56640625 1.69921875 -10.56640625 1.69921875 -7.5625 0.6875 C-6.57378906 0.34074219 -5.58507812 -0.00601563 -4.56640625 -0.36328125 C-2 -1 -2 -1 0 0 Z " fill="#84C6A7" transform="translate(172,80)"/>
<path d="M0 0 C2.9375 2.0625 2.9375 2.0625 5 5 C5.06641554 8.85210127 4.87229157 10.99848005 2.3125 13.9375 C-0.76819895 15.35295627 -2.64720251 15.55879958 -6 15 C-8.89648251 12.40841039 -9.87307907 10.7773907 -10.5 6.9375 C-10 4 -10 4 -8.375 1.625 C-5.24988831 -0.51323431 -3.71837535 -0.6829669 0 0 Z " fill="#8ACEAE" transform="translate(80,51)"/>
<path d="M0 0 C2.375 1.625 2.375 1.625 4 4 C4 7.78814147 3.8367392 10.03929943 1.3125 12.9375 C-1.73602877 14.33817538 -3.67926952 14.4842732 -7 14 C-9.375 12.4375 -9.375 12.4375 -11 10 C-11.73134328 4.04477612 -11.73134328 4.04477612 -9.6875 1.125 C-6.2263585 -1.18242767 -3.8550261 -1.22232535 0 0 Z " fill="#89CDAD" transform="translate(163,67)"/>
<path d="M0 0 C2.375 1.5625 2.375 1.5625 4 4 C4.56783945 7.97487617 4.62340519 10.06489221 2.375 13.4375 C-0.69817115 15.45932313 -2.38247881 15.52755517 -6 15 C-8.375 14.0625 -8.375 14.0625 -10 12 C-10.56536134 8.90205063 -10.56536134 6.09794937 -10 3 C-7.26135833 -0.47596827 -4.2407782 -0.61844682 0 0 Z " fill="#89CCAD" transform="translate(112,41)"/>
<path d="M0 0 C2.375 1 2.375 1 4 3 C4.65964122 6.55761554 4.63041883 9.73916234 3 13 C-0.26205554 14.63102777 -3.43555389 14.51981506 -7 14 C-9 13 -9 13 -10 11 C-10.45429103 8.23975072 -10.51084843 5.7551376 -10 3 C-7.19663749 -0.45029232 -4.26211439 -0.5327643 0 0 Z " fill="#8ED4B4" transform="translate(55,92)"/>
<path d="M0 0 C1.32 0 2.64 0 4 0 C3.67 0.845625 3.34 1.69125 3 2.5625 C1.46367916 7.84360289 1.14013837 11.37240477 3.75 16.3125 C7.66872572 20.99320017 11.01477115 21.30939667 17 22 C17 23.65 17 25.3 17 27 C16.34 26.34 15.68 25.68 15 25 C14.67 31.6 14.34 38.2 14 45 C12.68 45.66 11.36 46.32 10 47 C10.66 46.01 11.32 45.02 12 44 C12.27441372 41.8729569 12.27441372 41.8729569 12.1953125 39.55078125 C12.18886719 38.70322266 12.18242188 37.85566406 12.17578125 36.98242188 C12.15902344 36.10134766 12.14226562 35.22027344 12.125 34.3125 C12.11597656 33.41982422 12.10695313 32.52714844 12.09765625 31.60742188 C12.07409748 29.40467686 12.04120329 27.20247412 12 25 C10.68 25 9.36 25 8 25 C7.67 23.68 7.34 22.36 7 21 C3.95086772 19.98888907 3.95086772 19.98888907 1 21 C1 22.65 1 24.3 1 26 C0.34 26 -0.32 26 -1 26 C-1.33 25.01 -1.66 24.02 -2 23 C-2.33 24.32 -2.66 25.64 -3 27 C-4.65 26.67 -6.3 26.34 -8 26 C-7.42415568 23.61435923 -6.77772405 21.33317216 -6 19 C-4.02 19 -2.04 19 0 19 C0.33 18.01 0.66 17.02 1 16 C0.34 15.67 -0.32 15.34 -1 15 C-0.87431641 13.84371094 -0.87431641 13.84371094 -0.74609375 12.6640625 C-0.64425781 11.66117188 -0.54242188 10.65828125 -0.4375 9.625 C-0.33308594 8.62726563 -0.22867188 7.62953125 -0.12109375 6.6015625 C0.21144708 4.015963 0.21144708 4.015963 -1 2 C-0.67 1.34 -0.34 0.68 0 0 Z " fill="#A4CBB8" transform="translate(97,104)"/>
<path d="M0 0 C4.14641194 2.07320597 6.25500922 3.75437512 8 8 C8.76806044 11.99539131 8.86098715 15.53605023 6.76171875 19.10546875 C3.36064202 23.19857598 1.16245889 24.79599444 -4.3125 25.3125 C-8.73267921 24.93790854 -10.62729281 23.83614013 -14 21 C-16.40897521 18.02893058 -16.96512871 16.3254654 -17.375 12.5 C-16.97042537 8.72397016 -16.27010303 6.999779 -14 4 C-13.484375 3.236875 -12.96875 2.47375 -12.4375 1.6875 C-8.52960396 -1.01796649 -4.59487143 -0.72474313 0 0 Z M-14 7 C-15.57455739 10.14911479 -15.34799118 12.52008816 -15 16 C-13.22719439 18.97672584 -11.14391985 21.42804007 -8 23 C-3.02932218 23.3751455 0.05151502 23.15878799 4 20 C6.34113009 16.98997559 6.41216607 13.72258458 6.328125 9.96875 C5.80947233 6.85683396 4.21445226 5.14932131 2 3 C-4.26657796 -0.13328898 -9.89061607 1.60643359 -14 7 Z " fill="#131715" transform="translate(115,101)"/>
<path d="M0 0 C0.33 0.66 0.66 1.32 1 2 C1.99 1.67 2.98 1.34 4 1 C6.1875 1.9375 6.1875 1.9375 8 3 C8.99 2.34 9.98 1.68 11 1 C13.5 0.625 13.5 0.625 16 1 C17.8125 2.75 17.8125 2.75 19 5 C19 6.32 19 7.64 19 9 C18.01 9 17.02 9 16 9 C14.29467677 10.94009522 14.29467677 10.94009522 13 13 C8.57649669 12.49445676 6.21928398 11.04984798 3 8 C0.88153908 5.00493457 0 3.69349436 0 0 Z " fill="#121715" transform="translate(88,91)"/>
<path d="M0 0 C0.66 0 1.32 0 2 0 C2.125 2.875 2.125 2.875 2 6 C-0.7826171 8.7826171 -3.10332225 8.40930664 -6.90625 8.65625 C-9.21512259 8.82631807 -9.21512259 8.82631807 -11 11 C-11.99 11 -12.98 11 -14 11 C-14 11.66 -14 12.32 -14 13 C-12.7625 12.79375 -11.525 12.5875 -10.25 12.375 C-6.88090165 11.93892876 -4.87158079 11.96596361 -2 14 C-2 13.34 -2 12.68 -2 12 C0.475 12.495 0.475 12.495 3 13 C2.34 14.32 1.68 15.64 1 17 C-0.11375 16.814375 -1.2275 16.62875 -2.375 16.4375 C-5.82568861 15.68319343 -5.82568861 15.68319343 -8 17 C-8.99 16.67 -9.98 16.34 -11 16 C-11 18.31 -11 20.62 -11 23 C-11.33 23 -11.66 23 -12 23 C-12.66 20.69 -13.32 18.38 -14 16 C-16.97 15.505 -16.97 15.505 -20 15 C-20 14.34 -20 13.68 -20 13 C-17.525 13.495 -17.525 13.495 -15 14 C-15 11.36 -15 8.72 -15 6 C-14.67 6.99 -14.34 7.98 -14 9 C-13.236875 8.505 -12.47375 8.01 -11.6875 7.5 C-9 6 -9 6 -6 6 C-5.67 5.34 -5.34 4.68 -5 4 C-5 4.66 -5 5.32 -5 6 C-3.35 6 -1.7 6 0 6 C0 4.02 0 2.04 0 0 Z " fill="#728D80" transform="translate(146,99)"/>
<path d="M0 0 C1.32 0.33 2.64 0.66 4 1 C4.33 2.32 4.66 3.64 5 5 C5.99 5 6.98 5 8 5 C8 6.65 8 8.3 8 10 C6.68 10.33 5.36 10.66 4 11 C3.67 12.32 3.34 13.64 3 15 C1.68 14.67 0.36 14.34 -1 14 C-1 13.01 -1 12.02 -1 11 C-2.32 10.34 -3.64 9.68 -5 9 C-4.67 7.68 -4.34 6.36 -4 5 C-3.01 5 -2.02 5 -1 5 C-0.67 3.35 -0.34 1.7 0 0 Z " fill="#4C5E55" transform="translate(109,106)"/>
<path d="M0 0 C1.4370809 -0.05422947 2.87475462 -0.09289723 4.3125 -0.125 C5.11300781 -0.14820312 5.91351563 -0.17140625 6.73828125 -0.1953125 C9 0 9 0 12 2 C12.6875 5.625 12.6875 5.625 13 9 C11.25 9.6875 11.25 9.6875 9 10 C6.75 8.6875 6.75 8.6875 5 7 C5 6.34 5 5.68 5 5 C4.34 5 3.68 5 3 5 C2.67 6.32 2.34 7.64 2 9 C0.68 9 -0.64 9 -2 9 C-2.33 8.34 -2.66 7.68 -3 7 C-3.99 6.67 -4.98 6.34 -6 6 C-6 5.34 -6 4.68 -6 4 C-4.02 3.67 -2.04 3.34 0 3 C0 2.01 0 1.02 0 0 Z " fill="#222A27" transform="translate(85,114)"/>
<path d="M0 0 C1.65 0 3.3 0 5 0 C7.41158537 8.95731707 7.41158537 8.95731707 6.0625 12.375 C5.711875 12.91125 5.36125 13.4475 5 14 C4.01 13.34 3.02 12.68 2 12 C-0.32108669 11.29187186 -2.65377147 10.61975848 -5 10 C-5 7.69 -5 5.38 -5 3 C-4.34 3 -3.68 3 -3 3 C-2.67 3.33 -2.34 3.66 -2 4 C-1.34 2.68 -0.68 1.36 0 0 Z " fill="#101412" transform="translate(119,124)"/>
<path d="M0 0 C0 2.64 0 5.28 0 8 C-1.65 7.67 -3.3 7.34 -5 7 C-5 7.66 -5 8.32 -5 9 C-4.05125 8.95875 -3.1025 8.9175 -2.125 8.875 C1 9 1 9 3 11 C3.125 13.625 3.125 13.625 3 16 C2.01 16 1.02 16 0 16 C-0.99 16.33 -1.98 16.66 -3 17 C-3.99 16.67 -4.98 16.34 -6 16 C-6.38218767 14.34385343 -6.71395102 12.67542976 -7 11 C-6.67 10.67 -6.34 10.34 -6 10 C-6.1018371 8.08575543 -6.1018371 8.08575543 -6.4375 5.9375 C-6.623125 4.638125 -6.80875 3.33875 -7 2 C-4.35261084 0.5393715 -3.10551666 0 0 0 Z " fill="#222A26" transform="translate(131,105)"/>
<path d="M0 0 C0.99 0.33 1.98 0.66 3 1 C1.68 1.33 0.36 1.66 -1 2 C-1 2.99 -1 3.98 -1 5 C0.98 5 2.96 5 5 5 C5.12375 6.175625 5.12375 6.175625 5.25 7.375 C5.72806339 10.14749104 5.72806339 10.14749104 8.0625 11.3125 C8.701875 11.539375 9.34125 11.76625 10 12 C10 12.99 10 13.98 10 15 C10.66 15 11.32 15 12 15 C12 15.66 12 16.32 12 17 C12.66 17.33 13.32 17.66 14 18 C12.68 18 11.36 18 10 18 C9.67 18.99 9.34 19.98 9 21 C8.34 20.67 7.68 20.34 7 20 C7 19.01 7 18.02 7 17 C6.01 16.67 5.02 16.34 4 16 C4 14.35 4 12.7 4 11 C3.401875 10.95875 2.80375 10.9175 2.1875 10.875 C0 10 0 10 -1.8125 7.125 C-3 4 -3 4 -2 1 C-1.34 0.67 -0.68 0.34 0 0 Z " fill="#406051" transform="translate(52,142)"/>
<path d="M0 0 C5.94 0 11.88 0 18 0 C18.33 1.98 18.66 3.96 19 6 C13.06 6 7.12 6 1 6 C1.33 4.68 1.66 3.36 2 2 C1.34 2 0.68 2 0 2 C0 1.34 0 0.68 0 0 Z " fill="#527A67" transform="translate(158,116)"/>
<path d="M0 0 C1.9375 0.8125 1.9375 0.8125 4 2 C4.33 2.99 4.66 3.98 5 5 C5.66 4.67 6.32 4.34 7 4 C5.51643192 9.68701095 5.51643192 9.68701095 2.9375 11.25 C2.298125 11.4975 1.65875 11.745 1 12 C0.67 12.66 0.34 13.32 0 14 C-1.9375 14.75 -1.9375 14.75 -4 15 C-4.66 14.34 -5.32 13.68 -6 13 C-5.75 10.9375 -5.75 10.9375 -5 9 C-4.34 8.67 -3.68 8.34 -3 8 C-3.061875 7.05125 -3.12375 6.1025 -3.1875 5.125 C-3.125625 4.09375 -3.06375 3.0625 -3 2 C-2.01 1.34 -1.02 0.68 0 0 Z " fill="#060807" transform="translate(100,123)"/>
<path d="M0 0 C0.99 0.33 1.98 0.66 3 1 C2.67 3.31 2.34 5.62 2 8 C4.16343011 5.96731398 4.16343011 5.96731398 6 3 C6.66 3.66 7.32 4.32 8 5 C7.625 7.625 7.625 7.625 7 10 C7.99 10.33 8.98 10.66 10 11 C10.33 8.36 10.66 5.72 11 3 C12.32 3.33 13.64 3.66 15 4 C13.78322054 7.7372512 12.46233512 11.3441622 11 15 C6.38 13.35 1.76 11.7 -3 10 C-2.01 6.7 -1.02 3.4 0 0 Z " fill="#86C8AA" transform="translate(50,78)"/>
<path d="M0 0 C1.12535156 0.00580078 1.12535156 0.00580078 2.2734375 0.01171875 C3.02367188 0.00785156 3.77390625 0.00398438 4.546875 0 C10.14682697 0.01010822 10.14682697 0.01010822 11.2734375 1.13671875 C11.34523714 2.65599913 11.35735757 4.17839357 11.3359375 5.69921875 C11.32691406 6.52550781 11.31789063 7.35179688 11.30859375 8.203125 C11.29699219 8.84121094 11.28539063 9.47929688 11.2734375 10.13671875 C10.6134375 9.47671875 9.9534375 8.81671875 9.2734375 8.13671875 C9.2734375 6.48671875 9.2734375 4.83671875 9.2734375 3.13671875 C4.6534375 3.13671875 0.0334375 3.13671875 -4.7265625 3.13671875 C-4.7265625 5.11671875 -4.7265625 7.09671875 -4.7265625 9.13671875 C-1.7565625 9.13671875 1.2134375 9.13671875 4.2734375 9.13671875 C4.6034375 8.47671875 4.9334375 7.81671875 5.2734375 7.13671875 C5.2734375 7.79671875 5.2734375 8.45671875 5.2734375 9.13671875 C6.5934375 9.46671875 7.9134375 9.79671875 9.2734375 10.13671875 C3.9934375 10.13671875 -1.2865625 10.13671875 -6.7265625 10.13671875 C-6.82421875 3.203125 -6.82421875 3.203125 -6.7265625 1.13671875 C-4.90540247 -0.68444128 -2.41984486 0.00436795 0 0 Z " fill="#556960" transform="translate(108.7265625,74.86328125)"/>
<path d="M0 0 C6.4 0.49230769 6.4 0.49230769 9.4375 3.0625 C10.2109375 4.0215625 10.2109375 4.0215625 11 5 C8.03 4.505 8.03 4.505 5 4 C7.64 4.99 10.28 5.98 13 7 C12.690625 7.5775 12.38125 8.155 12.0625 8.75 C11.07416636 10.84294184 10.4831387 12.74535275 10 15 C10 14.01 10 13.02 10 12 C8.68 12.33 7.36 12.66 6 13 C5.67 11.35 5.34 9.7 5 8 C4.34 8 3.68 8 3 8 C2.34 7.01 1.68 6.02 1 5 C0.01 4.67 -0.98 4.34 -2 4 C-1.34 2.68 -0.68 1.36 0 0 Z " fill="#2A342F" transform="translate(85,100)"/>
<path d="M0 0 C0 1.32 0 2.64 0 4 C-1.98 4.66 -3.96 5.32 -6 6 C-6 8.64 -6 11.28 -6 14 C-5.34 14.33 -4.68 14.66 -4 15 C-4.99 15 -5.98 15 -7 15 C-6.67 16.32 -6.34 17.64 -6 19 C-6.66 19 -7.32 19 -8 19 C-7.67 20.32 -7.34 21.64 -7 23 C-8.98 23.66 -10.96 24.32 -13 25 C-13 26.65 -13 28.3 -13 30 C-13.66 28.68 -14.32 27.36 -15 26 C-15.66 26 -16.32 26 -17 26 C-17 25.34 -17 24.68 -17 24 C-16.236875 23.54625 -15.47375 23.0925 -14.6875 22.625 C-11.7975905 20.87761286 -10.50579847 20.01159694 -9 17 C-8.5439975 12.5063026 -8.77415648 8.34976732 -10 4 C-8.71086513 3.32845067 -7.41859796 2.66291141 -6.125 2 C-5.40570313 1.62875 -4.68640625 1.2575 -3.9453125 0.875 C-2 0 -2 0 0 0 Z " fill="#98BCAB" transform="translate(131,101)"/>
<path d="M0 0 C1.32 0.66 2.64 1.32 4 2 C3.505 2.70125 3.01 3.4025 2.5 4.125 C0.8063319 7.37119719 0.74837685 9.39340156 1 13 C2.93109581 13.04289755 2.93109581 13.04289755 5 12 C6.79271391 8.51202512 6.79271391 8.51202512 8 5 C9.32 5.33 10.64 5.66 12 6 C11.18957164 7.48030272 10.37659652 8.95921142 9.5625 10.4375 C9.11003906 11.26121094 8.65757812 12.08492187 8.19140625 12.93359375 C7 15 7 15 6 16 C0.75949367 16.4556962 0.75949367 16.4556962 -1.875 14.875 C-3.55866476 12.06889207 -3.3734054 10.23618015 -3 7 C-2.14817051 4.56200525 -1.12117486 2.33578096 0 0 Z " fill="#90D6B5" transform="translate(131,44)"/>
<path d="M0 0 C2.625 0.3125 2.625 0.3125 4.4375 2.3125 C4.829375 2.9725 5.22125 3.6325 5.625 4.3125 C5.0625 6.125 5.0625 6.125 3.625 8.3125 C0.125 10 0.125 10 -3.375 11.3125 C-4.365 11.8075 -4.365 11.8075 -5.375 12.3125 C-5.045 11.3225 -4.715 10.3325 -4.375 9.3125 C-6.85 8.3225 -6.85 8.3225 -9.375 7.3125 C-9.375 6.9825 -9.375 6.6525 -9.375 6.3125 C-7.725 6.3125 -6.075 6.3125 -4.375 6.3125 C-4.230625 5.508125 -4.08625 4.70375 -3.9375 3.875 C-3.17870126 0.41825017 -3.17870126 0.41825017 0 0 Z " fill="#82A192" transform="translate(128.375,85.6875)"/>
<path d="M0 0 C0.763125 0.20625 1.52625 0.4125 2.3125 0.625 C2.3125 1.285 2.3125 1.945 2.3125 2.625 C0.3325 2.625 -1.6475 2.625 -3.6875 2.625 C-3.3575 3.285 -3.0275 3.945 -2.6875 4.625 C-0.3734378 5.35575648 1.96078869 6.02638258 4.3125 6.625 C4.9375 9 4.9375 9 5.3125 11.625 C3.3125 13.625 3.3125 13.625 1.1484375 13.8203125 C-0.06972656 13.78550781 -0.06972656 13.78550781 -1.3125 13.75 C-2.12976563 13.73195313 -2.94703125 13.71390625 -3.7890625 13.6953125 C-4.41554688 13.67210937 -5.04203125 13.64890625 -5.6875 13.625 C-5.3575 12.305 -5.0275 10.985 -4.6875 9.625 C-4.0275 9.625 -3.3675 9.625 -2.6875 9.625 C-2.6875 10.285 -2.6875 10.945 -2.6875 11.625 C-1.0375 11.625 0.6125 11.625 2.3125 11.625 C1.9825 10.635 1.6525 9.645 1.3125 8.625 C-1.6575 8.13 -1.6575 8.13 -4.6875 7.625 C-5.0175 5.645 -5.3475 3.665 -5.6875 1.625 C-2.6875 -0.375 -2.6875 -0.375 0 0 Z " fill="#8ACFAF" transform="translate(95.6875,43.375)"/>
<path d="M0 0 C2.5 0.25 2.5 0.25 4.5 2.25 C4.8125 5.25 4.8125 5.25 4.5 8.25 C1.5 10.25 1.5 10.25 -1.125 9.9375 C-3.5 9.25 -3.5 9.25 -4.5 8.25 C-4.6875 5.3125 -4.6875 5.3125 -4.5 2.25 C-2.5 0.25 -2.5 0.25 0 0 Z " fill="#0A0F0D" transform="translate(159.5,68.75)"/>
<path d="M0 0 C3.29714793 0.32971479 4.6226839 0.6226839 7 3 C6.67028521 6.29714793 6.3773161 7.6226839 4 10 C0.70285207 9.67028521 -0.6226839 9.3773161 -3 7 C-2.67028521 3.70285207 -2.3773161 2.3773161 0 0 Z " fill="#080D0B" transform="translate(50,94)"/>
<path d="M0 0 C3 0.125 3 0.125 4 1.125 C4.125 4.625 4.125 4.625 4 8.125 C3 9.125 3 9.125 0.0625 9.375 C-0.948125 9.2925 -1.95875 9.21 -3 9.125 C-5 6.125 -5 6.125 -4.6875 3.5 C-3.68897505 0.05055016 -3.71397355 0.1547489 0 0 Z " fill="#070A09" transform="translate(109,43.875)"/>
<path d="M0 0 C2.97 0 5.94 0 9 0 C9 2.31 9 4.62 9 7 C8.01 7 7.02 7 6 7 C6 7.66 6 8.32 6 9 C3.03 8.505 3.03 8.505 0 8 C0 5.36 0 2.72 0 0 Z " fill="#000000" transform="translate(74,108)"/>
<path d="M0 0 C2.875 -0.125 2.875 -0.125 6 0 C8 2 8 2 8.25 4.5 C8 7 8 7 6 9 C2.375 8.625 2.375 8.625 -1 8 C-1.125 2.25 -1.125 2.25 0 0 Z " fill="#040605" transform="translate(74,54)"/>
<path d="M0 0 C4.29 0 8.58 0 13 0 C12.01 0.495 12.01 0.495 11 1 C11 2.65 11 4.3 11 6 C7.37 6 3.74 6 0 6 C0 4.02 0 2.04 0 0 Z " fill="#5D8B75" transform="translate(45,116)"/>
<path d="M0 0 C1 1 1 1 1.125 3.5 C1 6 1 6 0 7 C-1.69141656 6.91036938 -3.37959602 6.75422324 -5.0625 6.5625 C-6.44115234 6.40974609 -6.44115234 6.40974609 -7.84765625 6.25390625 C-8.55792969 6.17011719 -9.26820312 6.08632812 -10 6 C-10.33 4.68 -10.66 3.36 -11 2 C-7.19975907 0.58595686 -4.07077118 -0.34892324 0 0 Z " fill="#1F2723" transform="translate(86,88)"/>
<path d="M0 0 C0.66 0.33 1.32 0.66 2 1 C-0.625 5.875 -0.625 5.875 -4 7 C-3.773125 7.928125 -3.54625 8.85625 -3.3125 9.8125 C-3 13 -3 13 -4.3125 14.875 C-6 16 -6 16 -8 16 C-8.33 17.98 -8.66 19.96 -9 22 C-9.66 22 -10.32 22 -11 22 C-10.03644647 12.58997722 -10.03644647 12.58997722 -9 8 C-8.01 8 -7.02 8 -6 8 C-5.67 7.01 -5.34 6.02 -5 5 C-3.66666667 4.33333333 -2.33333333 3.66666667 -1 3 C-0.67 2.01 -0.34 1.02 0 0 Z " fill="#8CAE9E" transform="translate(106,129)"/>
<path d="M0 0 C1.29608947 0.93137592 2.58671632 1.8703566 3.875 2.8125 C4.95394531 3.59560547 4.95394531 3.59560547 6.0546875 4.39453125 C8 6 8 6 10 9 C7 9 7 9 4 8 C2.02 10.97 0.04 13.94 -2 17 C-2.99 16.01 -3.98 15.02 -5 14 C-4.34 14 -3.68 14 -3 14 C-2.5978125 13.1646875 -2.5978125 13.1646875 -2.1875 12.3125 C-0.89877353 9.80287477 0.52926478 7.40665764 2 5 C0.68 4.01 -0.64 3.02 -2 2 C-1.34 1.34 -0.68 0.68 0 0 Z " fill="#87CAAB" transform="translate(145,50)"/>
<path d="M0 0 C6.42570647 -0.36371923 6.42570647 -0.36371923 8.875 1.1875 C10.26229035 3.4225789 10.64987213 5.40905378 11 8 C8.22856087 9.12910483 7.19975164 9.08085185 4.375 7.9375 C1.45103451 5.55215973 0.88280826 3.61148835 0 0 Z " fill="#A0C6B5" transform="translate(124,124)"/>
<path d="M0 0 C2 0.3125 2 0.3125 4 1 C4.33 1.66 4.66 2.32 5 3 C5.66 2.67 6.32 2.34 7 2 C7 3.65 7 5.3 7 7 C7.66 7 8.32 7 9 7 C9 5.68 9 4.36 9 3 C9.66 3 10.32 3 11 3 C10.67 4.65 10.34 6.3 10 8 C8.35 8.33 6.7 8.66 5 9 C4.67 8.01 4.34 7.02 4 6 C3.071875 6.309375 3.071875 6.309375 2.125 6.625 C1.42375 6.74875 0.7225 6.8725 0 7 C-0.66 6.34 -1.32 5.68 -2 5 C-1.46428571 1.46428571 -1.46428571 1.46428571 0 0 Z " fill="#547E6A" transform="translate(86,174)"/>
<path d="M0 0 C0.99 0.66 1.98 1.32 3 2 C1.35 2.66 -0.3 3.32 -2 4 C-2.66619172 7.02754455 -3.11964143 9.89452452 -3 13 C-0.64122063 16.33004147 0.89448643 17.68062941 4.8125 18.8125 C5.534375 18.874375 6.25625 18.93625 7 19 C5.3125 20.125 5.3125 20.125 3 21 C-0.28057479 20.26187067 -1.86751369 19.12532489 -4.3125 16.8125 C-6.46888301 13.21852832 -6.5166595 11.13327601 -6 7 C-4.34860695 3.4613006 -3.28394771 2.18929847 0 0 Z " fill="#728E81" transform="translate(106,103)"/>
<path d="M0 0 C4.62 0 9.24 0 14 0 C12.02 0.99 12.02 0.99 10 2 C9.67 3.32 9.34 4.64 9 6 C6.03 6 3.06 6 0 6 C0 4.02 0 2.04 0 0 Z " fill="#93B7A6" transform="translate(104,78)"/>
<path d="M0 0 C1.32 0 2.64 0 4 0 C5.125 3.3125 5.125 3.3125 6 7 C5.01 8.485 5.01 8.485 4 10 C4.66 10.33 5.32 10.66 6 11 C4.35 11.66 2.7 12.32 1 13 C1.33 11.68 1.66 10.36 2 9 C1.34 9 0.68 9 0 9 C-1.3950848 6.70221327 -2.07438619 5.5207033 -1.6875 2.8125 C-1 1 -1 1 0 0 Z " fill="#476B5A" transform="translate(47,130)"/>
<path d="M0 0 C0.66 0.33 1.32 0.66 2 1 C2 2.32 2 3.64 2 5 C3.32 5 4.64 5 6 5 C6 5.99 6 6.98 6 8 C5.01 8.33 4.02 8.66 3 9 C2.67 9.99 2.34 10.98 2 12 C1.01 12 0.02 12 -1 12 C-1 10.68 -1 9.36 -1 8 C-1.99 8.33 -2.98 8.66 -4 9 C-3.67 7.68 -3.34 6.36 -3 5 C-2.34 5 -1.68 5 -1 5 C-0.67 3.35 -0.34 1.7 0 0 Z " fill="#CAFBE4" transform="translate(110,107)"/>
<path d="M0 0 C0.99 0.33 1.98 0.66 3 1 C3.6875 3.0625 3.6875 3.0625 4 5 C4.66 4.67 5.32 4.34 6 4 C6 4.66 6 5.32 6 6 C6.99 6.33 7.98 6.66 9 7 C8.01 7.495 8.01 7.495 7 8 C7 8.33 7 8.66 7 9 C7.99 9.33 8.98 9.66 10 10 C9.67 10.99 9.34 11.98 9 13 C7.68 12.67 6.36 12.34 5 12 C4.67 10.68 4.34 9.36 4 8 C3.01 8.495 3.01 8.495 2 9 C1.67 7.68 1.34 6.36 1 5 C0.34 5.66 -0.32 6.32 -1 7 C-1.66 5.68 -2.32 4.36 -3 3 C-2.01 2.01 -1.02 1.02 0 0 Z " fill="#74AD92" transform="translate(66,161)"/>
<path d="M0 0 C0.99 0 1.98 0 3 0 C2.85831863 1.43791516 2.71148957 2.8753237 2.5625 4.3125 C2.48128906 5.11300781 2.40007812 5.91351563 2.31640625 6.73828125 C2 9 2 9 1 12 C3.97 12.495 3.97 12.495 7 13 C6.67 13.99 6.34 14.98 6 16 C1.545 15.01 1.545 15.01 -3 14 C-2.01 9.38 -1.02 4.76 0 0 Z " fill="#8ED4B3" transform="translate(119,42)"/>
<path d="M0 0 C0 0.66 0 1.32 0 2 C-0.99 2.33 -1.98 2.66 -3 3 C-3 4.32 -3 5.64 -3 7 C-3.66 7.66 -4.32 8.32 -5 9 C-7.125 8.625 -7.125 8.625 -9 8 C-9.625 6.1875 -9.625 6.1875 -10 4 C-8 1 -8 1 -5 0.3125 C-2 0 -2 0 0 0 Z " fill="#4A6F5D" transform="translate(169,150)"/>
<path d="M0 0 C0.33 0.99 0.66 1.98 1 3 C1.99 3.33 2.98 3.66 4 4 C4.125 6.375 4.125 6.375 4 9 C3.34 9.66 2.68 10.32 2 11 C-1.53571429 10.46428571 -1.53571429 10.46428571 -3 9 C-3.04063832 7.33382885 -3.042721 5.66611905 -3 4 C-2.01 3.67 -1.02 3.34 0 3 C0 2.01 0 1.02 0 0 Z " fill="#91B4A4" transform="translate(123,139)"/>
<path d="M0 0 C2.4375 1.75 2.4375 1.75 4.4375 4.75 C4.87512929 10.1766032 4.80639008 13.25814656 1.4375 17.75 C0.1175 17.42 -1.2025 17.09 -2.5625 16.75 C-1.5725 16.42 -0.5825 16.09 0.4375 15.75 C1.63504817 12.15735548 1.76844958 9.52282526 1.4375 5.75 C-0.66819795 3.06341986 -2.71351825 1.64932116 -5.5625 -0.25 C-2.5625 -1.25 -2.5625 -1.25 0 0 Z " fill="#8EB0A0" transform="translate(116.5625,104.25)"/>
<path d="M0 0 C6.05761794 -0.41776675 9.19025097 -0.12264203 14 4 C16.80476313 7.56969854 16.14466817 11.65995488 16 16 C15.34 15.67 14.68 15.34 14 15 C13.5078125 13.0390625 13.5078125 13.0390625 13.125 10.625 C12.37439573 7.04866385 12.37439573 7.04866385 10.4375 4 C6.73292639 2.48017493 2.97210855 2.24613493 -1 2 C-0.67 1.34 -0.34 0.68 0 0 Z " fill="#0F1211" transform="translate(107,101)"/>
<path d="M0 0 C3.7910119 1.44950455 7.3874638 3.15172566 11 5 C11.45375 4.34 11.9075 3.68 12.375 3 C12.91125 2.34 13.4475 1.68 14 1 C14.66 1 15.32 1 16 1 C14.92598892 3.91517292 14.22189824 5.77810176 12 8 C6.94770045 7.85140295 3.05453079 4.72649589 -1 2 C-0.67 1.34 -0.34 0.68 0 0 Z " fill="#91D8B7" transform="translate(53,74)"/>
<path d="M0 0 C2.375 2 2.375 2 4 4 C3.34 5.98 2.68 7.96 2 10 C1.67 10 1.34 10 1 10 C0.67 8.02 0.34 6.04 0 4 C-3.5219721 3.91995518 -6.61981469 3.95994298 -10 5 C-7.70638175 -0.07872613 -5.55185801 -0.5551858 0 0 Z " fill="#90D7B6" transform="translate(112,41)"/>
<path d="M0 0 C0.66 0 1.32 0 2 0 C2.66 0.99 3.32 1.98 4 3 C6.16463326 3.50584474 6.16463326 3.50584474 8.5625 3.5625 C11.00390625 3.69140625 11.00390625 3.69140625 13 4 C13.33 4.66 13.66 5.32 14 6 C13.21625 5.95875 12.4325 5.9175 11.625 5.875 C8.83883881 5.71271266 8.83883881 5.71271266 7 8 C7 7.34 7 6.68 7 6 C5.68 6 4.36 6 3 6 C2.67 7.65 2.34 9.3 2 11 C1.01 11 0.02 11 -1 11 C-0.649375 9.9275 -0.29875 8.855 0.0625 7.75 C1.06715761 3.74564889 1.06715761 3.74564889 0 0 Z " fill="#657D72" transform="translate(124,128)"/>
<path d="M0 0 C0.99 0.99 1.98 1.98 3 3 C-0.3 6.3 -3.6 9.6 -7 13 C-7.99 12.01 -8.98 11.02 -10 10 C-9.44570312 9.52949219 -8.89140625 9.05898437 -8.3203125 8.57421875 C-7.59585938 7.95160156 -6.87140625 7.32898438 -6.125 6.6875 C-5.40570313 6.07261719 -4.68640625 5.45773438 -3.9453125 4.82421875 C-1.80820669 2.9587676 -1.80820669 2.9587676 0 0 Z " fill="#87C9AA" transform="translate(156,59)"/>
<path d="M0 0 C0 1.32 0 2.64 0 4 C-1.98 4.66 -3.96 5.32 -6 6 C-5.938125 7.423125 -5.938125 7.423125 -5.875 8.875 C-6 12 -6 12 -8 14 C-8.66 10.7 -9.32 7.4 -10 4 C-2.25 0 -2.25 0 0 0 Z " fill="#ADD7C3" transform="translate(131,101)"/>
<path d="M0 0 C0.66 0 1.32 0 2 0 C2 2.64 2 5.28 2 8 C4.31 8.33 6.62 8.66 9 9 C8.01 9.495 8.01 9.495 7 10 C7 10.66 7 11.32 7 12 C8.32 12.33 9.64 12.66 11 13 C11 13.66 11 14.32 11 15 C11.66 15.33 12.32 15.66 13 16 C11.68 15.67 10.36 15.34 9 15 C9 14.34 9 13.68 9 13 C8.01 13 7.02 13 6 13 C6 12.34 6 11.68 6 11 C5.34 11 4.68 11 4 11 C4 10.34 4 9.68 4 9 C2.68 9 1.36 9 0 9 C0 6.03 0 3.06 0 0 Z " fill="#6A8377" transform="translate(72,108)"/>
<path d="M0 0 C6.4 0.49230769 6.4 0.49230769 9.4375 3.0625 C10.2109375 4.0215625 10.2109375 4.0215625 11 5 C8.03 4.505 8.03 4.505 5 4 C4.34 5.32 3.68 6.64 3 8 C2.34 7.01 1.68 6.02 1 5 C0.01 4.67 -0.98 4.34 -2 4 C-1.34 2.68 -0.68 1.36 0 0 Z " fill="#040504" transform="translate(85,100)"/>
<path d="M0 0 C2.33944736 0.28730055 4.6739143 0.61936779 7 1 C3.55384615 6.78461538 3.55384615 6.78461538 0.75 7.875 C0.1725 7.91625 -0.405 7.9575 -1 8 C-1.04241723 5.66705225 -1.04092937 3.33297433 -1 1 C-0.67 0.67 -0.34 0.34 0 0 Z " fill="#121715" transform="translate(118,93)"/>
<path d="M0 0 C2.38564077 0.57584432 4.66682784 1.22227595 7 2 C7 1.34 7 0.68 7 0 C8.65 0.33 10.3 0.66 12 1 C11.34 2.32 10.68 3.64 10 5 C8.88625 4.814375 7.7725 4.62875 6.625 4.4375 C3.17431139 3.68319343 3.17431139 3.68319343 1 5 C0.34 4.67 -0.32 4.34 -1 4 C-0.67 2.68 -0.34 1.36 0 0 Z " fill="#688175" transform="translate(137,111)"/>
<path d="M0 0 C0.33 2.31 0.66 4.62 1 7 C-4.28 7 -9.56 7 -15 7 C-15 6.67 -15 6.34 -15 6 C-9.555 5.505 -9.555 5.505 -4 5 C-4 4.34 -4 3.68 -4 3 C-4.99 2.67 -5.98 2.34 -7 2 C-4 0 -4 0 0 0 Z " fill="#BDEBD5" transform="translate(118,79)"/>
<path d="M0 0 C0.99 0.33 1.98 0.66 3 1 C2.1875 4.4375 2.1875 4.4375 1 8 C0.01 8.33 -0.98 8.66 -2 9 C-2.33 8.34 -2.66 7.68 -3 7 C-3.99 6.67 -4.98 6.34 -6 6 C-6 5.34 -6 4.68 -6 4 C-4.02 3.67 -2.04 3.34 0 3 C0 2.01 0 1.02 0 0 Z " fill="#0A0C0B" transform="translate(85,114)"/>
<path d="M0 0 C0.99 0.33 1.98 0.66 3 1 C2.01 1.66 1.02 2.32 0 3 C0 3.66 0 4.32 0 5 C0.99 5.66 1.98 6.32 3 7 C1.824375 7.12375 1.824375 7.12375 0.625 7.25 C-2.14749104 7.72806339 -2.14749104 7.72806339 -3.3125 10.0625 C-3.539375 10.701875 -3.76625 11.34125 -4 12 C-5.5625 10.1875 -5.5625 10.1875 -7 8 C-6.67 7.01 -6.34 6.02 -6 5 C-4.68 5 -3.36 5 -2 5 C-1.855625 4.360625 -1.71125 3.72125 -1.5625 3.0625 C-1 1 -1 1 0 0 Z " fill="#7CB99D" transform="translate(153,161)"/>
<path d="M0 0 C0 2.64 0 5.28 0 8 C-0.99 8 -1.98 8 -3 8 C-3.33 7.01 -3.66 6.02 -4 5 C-4.99 5 -5.98 5 -7 5 C-6.6875 3.0625 -6.6875 3.0625 -6 1 C-3 0 -3 0 0 0 Z " fill="#090B0A" transform="translate(131,105)"/>
<path d="M0 0 C0.33 0.99 0.66 1.98 1 3 C3.41619823 3.25030977 3.41619823 3.25030977 6 3 C6.66 2.01 7.32 1.02 8 0 C8.33 1.32 8.66 2.64 9 4 C5.66666667 5.66666667 2.33333333 7.33333333 -1 9 C-0.67 8.01 -0.34 7.02 0 6 C-2.475 5.01 -2.475 5.01 -5 4 C-5 3.67 -5 3.34 -5 3 C-3.35 3 -1.7 3 0 3 C0 2.01 0 1.02 0 0 Z " fill="#7B998B" transform="translate(124,89)"/>
<path d="M0 0 C0.66 0 1.32 0 2 0 C1.50168276 3.68754757 0.89932357 5.60490662 -2 8 C-1.67 8.66 -1.34 9.32 -1 10 C-3.31 10.33 -5.62 10.66 -8 11 C-7.01 10.34 -6.02 9.68 -5 9 C-4.27034634 6.43717258 -4.27034634 6.43717258 -4 4 C-2.68 3.67 -1.36 3.34 0 3 C0 2.01 0 1.02 0 0 Z " fill="#B5E0CC" transform="translate(117,113)"/>
<path d="M0 0 C2.625 0.375 2.625 0.375 5 1 C5 3.31 5 5.62 5 8 C4.01 7.67 3.02 7.34 2 7 C2.33 5.68 2.66 4.36 3 3 C2.01 3 1.02 3 0 3 C-0.33 4.32 -0.66 5.64 -1 7 C-1.66 6.67 -2.32 6.34 -3 6 C-2.42655063 3.13275314 -2.1385485 2.1385485 0 0 Z " fill="#85C6A7" transform="translate(171,96)"/>
<path d="M0 0 C2 1 2 1 3.4375 3.4375 C4.89664045 6.2355972 4.89664045 6.2355972 8 8 C8 8.99 8 9.98 8 11 C5.69 11 3.38 11 1 11 C1 10.34 1 9.68 1 9 C2.65 9 4.3 9 6 9 C2.71536341 6.81024227 -0.20696275 6.00193437 -4 5 C-1 4 -1 4 1 4 C0.67 2.68 0.34 1.36 0 0 Z " fill="#708B7E" transform="translate(89,95)"/>
<path d="M0 0 C1.32 0.33 2.64 0.66 4 1 C4 1.66 4 2.32 4 3 C4.99 3 5.98 3 7 3 C7 3.66 7 4.32 7 5 C7.66 5.33 8.32 5.66 9 6 C7.68 6 6.36 6 5 6 C4.67 6.99 4.34 7.98 4 9 C1.18167487 7.59083743 0.97406539 5.92219617 0 3 C0 2.01 0 1.02 0 0 Z " fill="#406051" transform="translate(57,154)"/>
<path d="M0 0 C2.625 0.3125 2.625 0.3125 4.4375 2.0625 C5.625 4.3125 5.625 4.3125 5.625 8.3125 C4.635 7.9825 3.645 7.6525 2.625 7.3125 C2.625 6.6525 2.625 5.9925 2.625 5.3125 C1.965 5.3125 1.305 5.3125 0.625 5.3125 C0.295 4.6525 -0.035 3.9925 -0.375 3.3125 C-1.365 2.6525 -2.355 1.9925 -3.375 1.3125 C-2.375 0.3125 -2.375 0.3125 0 0 Z " fill="#262F2B" transform="translate(101.375,91.6875)"/>
<path d="M0 0 C0.309375 0.639375 0.61875 1.27875 0.9375 1.9375 C1.8345163 3.93610821 1.8345163 3.93610821 3 5 C2.67 5.66 2.34 6.32 2 7 C-1.0625 7.625 -1.0625 7.625 -4 8 C-5.125 4.25 -5.125 4.25 -4 2 C-1.9375 0.875 -1.9375 0.875 0 0 Z " fill="#64967F" transform="translate(133,174)"/>
<path d="M0 0 C0.99 1.485 0.99 1.485 2 3 C2.66 3 3.32 3 4 3 C4.66 2.01 5.32 1.02 6 0 C6 1.32 6 2.64 6 4 C7.32 4.66 8.64 5.32 10 6 C9.67 6.99 9.34 7.98 9 9 C8.67 8.34 8.34 7.68 8 7 C7.01 6.67 6.02 6.34 5 6 C5.66 7.65 6.32 9.3 7 11 C6.01 10.67 5.02 10.34 4 10 C4 8.35 4 6.7 4 5 C2.68 4.67 1.36 4.34 0 4 C0 2.68 0 1.36 0 0 Z " fill="#77B296" transform="translate(52,148)"/>
<path d="M0 0 C5.75 0.75 5.75 0.75 8 3 C8.125 6.125 8.125 6.125 8 9 C7.46375 8.195625 6.9275 7.39125 6.375 6.5625 C3.56894631 3.53491576 2.03174806 3.27489191 -2 3 C-1.34 2.01 -0.68 1.02 0 0 Z " fill="#8DD3B2" transform="translate(76,51)"/>
<path d="M0 0 C1.32 0.66 2.64 1.32 4 2 C3.2884375 3.0828125 3.2884375 3.0828125 2.5625 4.1875 C1.05847097 6.89475226 0.43400818 8.96194275 0 12 C-0.99 11.67 -1.98 11.34 -3 11 C-2.44894091 7.0507432 -1.61064629 3.65079826 0 0 Z " fill="#85C6A8" transform="translate(131,44)"/>
<path d="M0 0 C2.97 0 5.94 0 9 0 C7.25 3 7.25 3 5 6 C3.68 6 2.36 6 1 6 C1.33 4.68 1.66 3.36 2 2 C1.34 2 0.68 2 0 2 C0 1.34 0 0.68 0 0 Z " fill="#679A82" transform="translate(158,116)"/>
<path d="M0 0 C-3.90102388 2.78644563 -7.38486888 4.68139111 -12 6 C-11.77734375 4.11328125 -11.77734375 4.11328125 -11 2 C-9.00390625 0.91796875 -9.00390625 0.91796875 -6.5625 0.1875 C-5.75941406 -0.06644531 -4.95632812 -0.32039063 -4.12890625 -0.58203125 C-2 -1 -2 -1 0 0 Z " fill="#89CDAD" transform="translate(170,81)"/>
<path d="M0 0 C2.475 0.495 2.475 0.495 5 1 C4.67 4.3 4.34 7.6 4 11 C1.73030256 8.73030256 1.00868171 7.02604513 0 4 C0 2.68 0 1.36 0 0 Z " fill="#93B6A5" transform="translate(94,79)"/>
<path d="M0 0 C0.53625 0.144375 1.0725 0.28875 1.625 0.4375 C4.39915827 1.09453748 7.18525388 1.55219948 10 2 C8.72485508 4.55028983 7.59658703 4.93081711 5 6 C4.01 6 3.02 6 2 6 C2 5.34 2 4.68 2 4 C1.34 3.67 0.68 3.34 0 3 C0 2.01 0 1.02 0 0 Z " fill="#65967F" transform="translate(135,173)"/>
<path d="M0 0 C0.66 1.32 1.32 2.64 2 4 C5.0745356 3.2236068 5.0745356 3.2236068 7 1 C7.042721 2.66611905 7.04063832 4.33382885 7 6 C6 7 6 7 3.5625 7.25 C2.716875 7.1675 1.87125 7.085 1 7 C-1 4 -1 4 -0.625 1.8125 C-0.41875 1.214375 -0.2125 0.61625 0 0 Z " fill="#94DDBB" transform="translate(163,99)"/>
<path d="M0 0 C2.0625 0.4375 2.0625 0.4375 4 1 C4 2.66666667 4 4.33333333 4 6 C2.68 6.33 1.36 6.66 0 7 C-0.38133299 5.0085944 -0.71325582 3.00720923 -1 1 C-0.67 0.67 -0.34 0.34 0 0 Z " fill="#56806C" transform="translate(123,177)"/>
<path d="M0 0 C1.32 0.66 2.64 1.32 4 2 C3.01 2.66 2.02 3.32 1 4 C1 5.32 1 6.64 1 8 C-0.65 8.66 -2.3 9.32 -4 10 C-3.52449439 8.51965236 -3.04448784 7.04074979 -2.5625 5.5625 C-2.29566406 4.73878906 -2.02882813 3.91507812 -1.75390625 3.06640625 C-1 1 -1 1 0 0 Z " fill="#759183" transform="translate(89,123)"/>
<path d="M0 0 C1.32 0.33 2.64 0.66 4 1 C3.6875 2.9375 3.6875 2.9375 3 5 C2.01 5.33 1.02 5.66 0 6 C-0.33 6.66 -0.66 7.32 -1 8 C-1.66 7.67 -2.32 7.34 -3 7 C-2.01 4.69 -1.02 2.38 0 0 Z " fill="#99BDAC" transform="translate(137,81)"/>
<path d="M0 0 C0.99 0.33 1.98 0.66 3 1 C2.67 1.99 2.34 2.98 2 4 C0.824375 3.505 0.824375 3.505 -0.375 3 C-2.84332497 1.88133489 -2.84332497 1.88133489 -5 2 C-5 1.34 -5 0.68 -5 0 C-6.98 0 -8.96 0 -11 0 C-11 -0.33 -11 -0.66 -11 -1 C-6.54842814 -2.03524927 -4.10968826 -1.9993078 0 0 Z " fill="#83A394" transform="translate(146,123)"/>
<path d="M0 0 C0.99 0.66 1.98 1.32 3 2 C1.7934375 2.37125 1.7934375 2.37125 0.5625 2.75 C-2.171081 3.72238859 -2.171081 3.72238859 -2.8125 6.125 C-2.9053125 7.053125 -2.9053125 7.053125 -3 8 C-3.66 8 -4.32 8 -5 8 C-5.33 9.32 -5.66 10.64 -6 12 C-5.73781251 7.5428126 -5.42288711 5.48477302 -2.4375 2.0625 C-1.633125 1.381875 -0.82875 0.70125 0 0 Z " fill="#84A394" transform="translate(106,103)"/>
<path d="M0 0 C1.65 0.33 3.3 0.66 5 1 C4.34 2.32 3.68 3.64 3 5 C1.02 5 -0.96 5 -3 5 C-2.01 3.35 -1.02 1.7 0 0 Z " fill="#AED7C4" transform="translate(134,96)"/>
<path d="M0 0 C2.4375 1.1875 2.4375 1.1875 5 3 C5.8125 5.6875 5.8125 5.6875 6 8 C5.34 8 4.68 8 4 8 C4 7.34 4 6.68 4 6 C3.01 6 2.02 6 1 6 C0.67 4.02 0.34 2.04 0 0 Z " fill="#CAFAE3" transform="translate(113,105)"/>
<path d="M0 0 C1.2065625 0.0309375 1.2065625 0.0309375 2.4375 0.0625 C2.4375 1.7125 2.4375 3.3625 2.4375 5.0625 C0.7875 5.0625 -0.8625 5.0625 -2.5625 5.0625 C-3.125 3.125 -3.125 3.125 -3.5625 1.0625 C-2.5625 0.0625 -2.5625 0.0625 0 0 Z " fill="#9FC5B4" transform="translate(78.5625,88.9375)"/>
<path d="M0 0 C0.99 0 1.98 0 3 0 C3.33 1.98 3.66 3.96 4 6 C2.68 6.33 1.36 6.66 0 7 C-0.93423645 3.98968256 -1.04449911 3.13349732 0 0 Z " fill="#5F8E78" transform="translate(118,178)"/>
<path d="M0 0 C1.32 0 2.64 0 4 0 C3.690625 0.845625 3.38125 1.69125 3.0625 2.5625 C1.98461179 6.0497854 1.43418696 9.38177535 1 13 C0.67 13 0.34 13 0 13 C0.01160156 12.37351562 0.02320312 11.74703125 0.03515625 11.1015625 C0.04417969 10.28429687 0.05320312 9.46703125 0.0625 8.625 C0.07990234 7.40683594 0.07990234 7.40683594 0.09765625 6.1640625 C0.14466334 3.95062858 0.14466334 3.95062858 -1 2 C-0.67 1.34 -0.34 0.68 0 0 Z " fill="#BAE6D1" transform="translate(97,104)"/>
<path d="M0 0 C2.64 0 5.28 0 8 0 C8 0.99 8 1.98 8 3 C5.69 3 3.38 3 1 3 C0.67 2.01 0.34 1.02 0 0 Z " fill="#37443E" transform="translate(74,108)"/>
<path d="M0 0 C2.31 0.66 4.62 1.32 7 2 C6.67 2.99 6.34 3.98 6 5 C3.03 4.505 3.03 4.505 0 4 C0 2.68 0 1.36 0 0 Z " fill="#050706" transform="translate(91,105)"/>
<path d="M0 0 C0.66 0.33 1.32 0.66 2 1 C2.23053497 3.84326464 2.35903101 5.46145349 0.75 7.875 C-1 9 -1 9 -3.1875 8.6875 C-3.785625 8.460625 -4.38375 8.23375 -5 8 C-4.360625 7.608125 -3.72125 7.21625 -3.0625 6.8125 C-0.56221181 4.61527704 -0.35049575 3.24208567 0 0 Z " fill="#95DFBC" transform="translate(114,46)"/>
<path d="M0 0 C0.99 0 1.98 0 3 0 C2.67 2.97 2.34 5.94 2 9 C1.67 8.34 1.34 7.68 1 7 C0.34 7 -0.32 7 -1 7 C-0.67 4.69 -0.34 2.38 0 0 Z " fill="#7EBB9F" transform="translate(119,42)"/>
<path d="M0 0 C1.98 0.495 1.98 0.495 4 1 C3.67 2.65 3.34 4.3 3 6 C1.68 6 0.36 6 -1 6 C-0.67 4.02 -0.34 2.04 0 0 Z " fill="#699C84" transform="translate(98,178)"/>
<path d="M0 0 C2.31 0.33 4.62 0.66 7 1 C7 2.32 7 3.64 7 5 C5.68 5 4.36 5 3 5 C3 4.01 3 3.02 3 2 C2.01 1.67 1.02 1.34 0 1 C0 0.67 0 0.34 0 0 Z " fill="#AAD3C0" transform="translate(138,134)"/>
<path d="M0 0 C0.33 0 0.66 0 1 0 C1.05422947 1.4370809 1.09289723 2.87475462 1.125 4.3125 C1.14820312 5.11300781 1.17140625 5.91351563 1.1953125 6.73828125 C1 9 1 9 -1 12 C-2.32 11.67 -3.64 11.34 -5 11 C-4.01 10.67 -3.02 10.34 -2 10 C-1.34 6.7 -0.68 3.4 0 0 Z " fill="#6F897D" transform="translate(119,110)"/>
<path d="M0 0 C2.475 0.495 2.475 0.495 5 1 C5.33 1.99 5.66 2.98 6 4 C6.99 4.66 7.98 5.32 9 6 C3.50847458 5.38983051 3.50847458 5.38983051 1.125 3.5625 C0 2 0 2 0 0 Z " fill="#CBFBE4" transform="translate(103,116)"/>
<path d="M0 0 C0.99 0.33 1.98 0.66 3 1 C2.67 3.64 2.34 6.28 2 9 C0.68 8.67 -0.64 8.34 -2 8 C-1.34 5.36 -0.68 2.72 0 0 Z " fill="#77B297" transform="translate(50,78)"/>
<path d="M0 0 C0.556875 0.28875 1.11375 0.5775 1.6875 0.875 C4.08494645 2.0413253 6.51596939 3.0339881 9 4 C9 4.33 9 4.66 9 5 C3.375 5.25 3.375 5.25 0 3 C0 2.01 0 1.02 0 0 Z " fill="#94DDBB" transform="translate(153,76)"/>
<path d="M0 0 C0.875 1.8125 0.875 1.8125 1 4 C-0.4375 6.25 -0.4375 6.25 -2 8 C-2.33 6.02 -2.66 4.04 -3 2 C-4.65 1.67 -6.3 1.34 -8 1 C-8 0.67 -8 0.34 -8 0 C-4.71303767 -0.79953138 -3.28976808 -1.09658936 0 0 Z " fill="#71A88F" transform="translate(115,43)"/>
<path d="M0 0 C1.65 0 3.3 0 5 0 C4.67 1.32 4.34 2.64 4 4 C2.35 3.67 0.7 3.34 -1 3 C-0.67 2.01 -0.34 1.02 0 0 Z " fill="#2C4238" transform="translate(153,163)"/>
<path d="M0 0 C-0.99 1.485 -0.99 1.485 -2 3 C-1.34 3.33 -0.68 3.66 0 4 C-1.65 4.66 -3.3 5.32 -5 6 C-4.67 4.68 -4.34 3.36 -4 2 C-4.66 2 -5.32 2 -6 2 C-6 1.34 -6 0.68 -6 0 C-3 -1 -3 -1 0 0 Z " fill="#6EA38A" transform="translate(53,137)"/>
<path d="M0 0 C1.98 0 3.96 0 6 0 C6 0.66 6 1.32 6 2 C5.34 2 4.68 2 4 2 C4 2.99 4 3.98 4 5 C2.68 4.34 1.36 3.68 0 3 C0 2.01 0 1.02 0 0 Z " fill="#689C84" transform="translate(169,136)"/>
<path d="M0 0 C2.31 0 4.62 0 7 0 C7 1.65 7 3.3 7 5 C6.34 4.34 5.68 3.68 5 3 C4.01 3 3.02 3 2 3 C1.34 3 0.68 3 0 3 C0 2.01 0 1.02 0 0 Z " fill="#AED8C4" transform="translate(107,126)"/>
<path d="M0 0 C0.66 0.33 1.32 0.66 2 1 C1.01 2.485 1.01 2.485 0 4 C-0.66 4 -1.32 4 -2 4 C-2.66 5.65 -3.32 7.3 -4 9 C-4.66 8.67 -5.32 8.34 -6 8 C-4.55746343 4.63408134 -2.66735273 2.48952921 0 0 Z " fill="#1A201D" transform="translate(105,101)"/>
<path d="M0 0 C1.98 0.495 1.98 0.495 4 1 C3.67 2.32 3.34 3.64 3 5 C1.68 4.67 0.36 4.34 -1 4 C-0.67 2.68 -0.34 1.36 0 0 Z " fill="#9EC4B2" transform="translate(127,88)"/>
<path d="M0 0 C0.33 0 0.66 0 1 0 C0.75 3.375 0.75 3.375 0 7 C-2.0625 8.4375 -2.0625 8.4375 -4 9 C-3.35499066 5.51694958 -1.95865224 2.93797836 0 0 Z " fill="#7CBA9D" transform="translate(84,56)"/>
<path d="M0 0 C2 1 2 1 3 2 C3.99 2.66 4.98 3.32 6 4 C5.34 4.66 4.68 5.32 4 6 C1.875 5.625 1.875 5.625 0 5 C-0.5625 3.0625 -0.5625 3.0625 -1 1 C-0.67 0.67 -0.34 0.34 0 0 Z " fill="#699D85" transform="translate(160,153)"/>
<path d="M0 0 C0.33 0.66 0.66 1.32 1 2 C1.66 2.33 2.32 2.66 3 3 C2.01 3 1.02 3 0 3 C0.33 4.32 0.66 5.64 1 7 C0.34 7 -0.32 7 -1 7 C-0.67 8.32 -0.34 9.64 0 11 C-0.99 10.67 -1.98 10.34 -3 10 C-2.01 6.7 -1.02 3.4 0 0 Z " fill="#ADD6C3" transform="translate(124,113)"/>
<path d="M0 0 C2.475 0.495 2.475 0.495 5 1 C4.34 2.32 3.68 3.64 3 5 C2.01 4.67 1.02 4.34 0 4 C0 2.68 0 1.36 0 0 Z " fill="#91B4A4" transform="translate(144,111)"/>
<path d="M0 0 C0 1.32 0 2.64 0 4 C-1.98 4.33 -3.96 4.66 -6 5 C-6 4.01 -6 3.02 -6 2 C-2.25 0 -2.25 0 0 0 Z " fill="#637A6F" transform="translate(131,101)"/>
<path d="M0 0 C0.66 0.33 1.32 0.66 2 1 C2.625 3.5625 2.625 3.5625 3 6 C1.68 5.67 0.36 5.34 -1 5 C-0.67 3.35 -0.34 1.7 0 0 Z " fill="#6B9F87" transform="translate(174,116)"/>
<path d="M0 0 C0.33 0.99 0.66 1.98 1 3 C1.66 3 2.32 3 3 3 C3 4.32 3 5.64 3 7 C1.68 6.67 0.36 6.34 -1 6 C-0.67 4.02 -0.34 2.04 0 0 Z " fill="#181E1B" transform="translate(86,106)"/>
<path d="M0 0 C0.99 0 1.98 0 3 0 C3.66 1.65 4.32 3.3 5 5 C3.02 4.34 1.04 3.68 -1 3 C-0.67 2.01 -0.34 1.02 0 0 Z " fill="#5A8672" transform="translate(141,170)"/>
<path d="M0 0 C0.66 0.33 1.32 0.66 2 1 C1.01 3.64 0.02 6.28 -1 9 C-1.99 8.01 -2.98 7.02 -4 6 C-2.84826645 3.53199953 -1.95216435 1.95216435 0 0 Z " fill="#7AB69A" transform="translate(74,51)"/>
<path d="M0 0 C1.32 0.66 2.64 1.32 4 2 C3.67 3.65 3.34 5.3 3 7 C1.68 5.68 0.36 4.36 -1 3 C-0.67 2.01 -0.34 1.02 0 0 Z " fill="#65977F" transform="translate(147,166)"/>
<path d="M0 0 C0.66 0 1.32 0 2 0 C1.34 2.31 0.68 4.62 0 7 C-0.99 6.34 -1.98 5.68 -3 5 C-1.125 1.125 -1.125 1.125 0 0 Z " fill="#56816D" transform="translate(66,161)"/>
<path d="M0 0 C0.99 0.33 1.98 0.66 3 1 C3 3.64 3 6.28 3 9 C0.23776722 6.23776722 0.42143709 3.79293383 0 0 Z " fill="#81A092" transform="translate(72,123)"/>
<path d="M0 0 C2.97 0 5.94 0 9 0 C8.01 0.33 7.02 0.66 6 1 C6 1.66 6 2.32 6 3 C3.03 2.505 3.03 2.505 0 2 C0 1.34 0 0.68 0 0 Z " fill="#303C36" transform="translate(74,114)"/>
<path d="M0 0 C0.66 0.33 1.32 0.66 2 1 C2.625 3.5625 2.625 3.5625 3 6 C1.02 6 -0.96 6 -3 6 C-3.33 5.34 -3.66 4.68 -4 4 C-2.35 4 -0.7 4 1 4 C0.67 2.68 0.34 1.36 0 0 Z " fill="#86A798" transform="translate(89,95)"/>
</svg>
